<mxfile host="app.diagrams.net" modified="2023-05-25T05:08:06.710Z" agent="Mozilla/5.0 (Windows NT 10.0; Win64; x64) AppleWebKit/537.36 (KHTML, like Gecko) Chrome/113.0.0.0 Safari/537.36" etag="V0uNjEH9-JX2qGKSh6hf" version="21.3.2" type="github">
  <diagram name="第 1 页" id="58b9OaestbxVdBqQVrvu">
    <mxGraphModel dx="454" dy="295" grid="1" gridSize="10" guides="1" tooltips="1" connect="1" arrows="1" fold="1" page="1" pageScale="1" pageWidth="827" pageHeight="1169" math="0" shadow="0">
      <root>
        <mxCell id="0" />
        <mxCell id="1" parent="0" />
        <mxCell id="bKO2OcbcGEJ9I5uSYvWs-2" value="" style="rounded=1;whiteSpace=wrap;html=1;fillColor=#FFCB70;strokeColor=none;" vertex="1" parent="1">
          <mxGeometry x="280" y="290" width="110" height="40" as="geometry" />
        </mxCell>
        <mxCell id="bKO2OcbcGEJ9I5uSYvWs-1" value="" style="rounded=1;whiteSpace=wrap;html=1;fillColor=#FFE5A8;strokeColor=none;" vertex="1" parent="1">
          <mxGeometry x="280" y="290" width="50" height="40" as="geometry" />
        </mxCell>
        <mxCell id="bKO2OcbcGEJ9I5uSYvWs-4" value="A" style="text;html=1;strokeColor=none;fillColor=none;align=center;verticalAlign=middle;whiteSpace=wrap;rounded=0;" vertex="1" parent="1">
          <mxGeometry x="280" y="295" width="60" height="30" as="geometry" />
        </mxCell>
        <mxCell id="bKO2OcbcGEJ9I5uSYvWs-6" value="B" style="text;html=1;strokeColor=none;fillColor=none;align=center;verticalAlign=middle;whiteSpace=wrap;rounded=0;" vertex="1" parent="1">
          <mxGeometry x="340" y="295" width="60" height="30" as="geometry" />
        </mxCell>
        <mxCell id="bKO2OcbcGEJ9I5uSYvWs-8" value="" style="rounded=1;whiteSpace=wrap;html=1;fillColor=#FFB570;strokeColor=none;" vertex="1" parent="1">
          <mxGeometry x="280" y="350" width="110" height="40" as="geometry" />
        </mxCell>
        <mxCell id="bKO2OcbcGEJ9I5uSYvWs-9" value="" style="rounded=1;whiteSpace=wrap;html=1;fillColor=#FFE5A8;strokeColor=none;" vertex="1" parent="1">
          <mxGeometry x="280" y="350" width="50" height="40" as="geometry" />
        </mxCell>
        <mxCell id="bKO2OcbcGEJ9I5uSYvWs-10" value="A" style="text;html=1;strokeColor=none;fillColor=none;align=center;verticalAlign=middle;whiteSpace=wrap;rounded=0;" vertex="1" parent="1">
          <mxGeometry x="280" y="355" width="60" height="30" as="geometry" />
        </mxCell>
        <mxCell id="bKO2OcbcGEJ9I5uSYvWs-11" value="C" style="text;html=1;strokeColor=none;fillColor=none;align=center;verticalAlign=middle;whiteSpace=wrap;rounded=0;" vertex="1" parent="1">
          <mxGeometry x="340" y="355" width="60" height="30" as="geometry" />
        </mxCell>
      </root>
    </mxGraphModel>
  </diagram>
</mxfile>
